# xmcd CD database file
#
# Track frame offsets:
#	182
#	15360
#	33767
#	48600
#	60957
#	72582
#	82815
#	96755
#	109875
#	125475
#	136887
#	150445
#	162502
#	174145
#	188472
#	203705
#	219365
#	232637
#	251080
#	262282
#	270527
#
# Disc length: 3793 seconds
#
# Revision: 3
# Processed by: cddbd v1.5.2PL0 Copyright (c) Steve Scherf et al.
# Submitted via: CDex 1.70beta2
#
DISCID=0e0ecf15
DTITLE=Marc OGERET - Ogeret chante Aragon
DYEAR=1900
DGENRE=
TTITLE0=Blues
TTITLE1=Est-ce ainsi que les hommes vivent?
TTITLE2=J'entends, j'entends
TTITLE3=Il n'y a pas d'amour heureux
TTITLE4=Les mains d'Elsa
TTITLE5=Nous dormirons ensemble
TTITLE6=Que serais-je sans toi?
TTITLE7=Chanson noire
TTITLE8=L'étrangère
TTITLE9=La rose du premier de l'an
TTITLE10=Le feu
TTITLE11=Il faisait si beau ce matin
TTITLE12=Tu avais beau faire et beau dire
TTITLE13=Ainsi prague
TTITLE14=Le jour de Sacco-Vanzetti
TTITLE15=L'affiche rouge
TTITLE16=Tu n'en reviendras pas
TTITLE17=Un jour, un jour
TTITLE18=Je chante pour passer le temps
TTITLE19=Les vauriens
TTITLE20=Maintenant que la jeunesse
EXTD=
EXTT0=
EXTT1=
EXTT2=
EXTT3=
EXTT4=
EXTT5=
EXTT6=
EXTT7=
EXTT8=
EXTT9=
EXTT10=
EXTT11=
EXTT12=
EXTT13=
EXTT14=
EXTT15=
EXTT16=
EXTT17=
EXTT18=
EXTT19=
EXTT20=
PLAYORDER=
